<?xml version="1.0" encoding="UTF-8"?>
<svg width="250px" height="90px" viewBox="0 0 465 90" version="1.1" xmlns="http://www.w3.org/2000/svg" xmlns:xlink="http://www.w3.org/1999/xlink">
    <defs>
        <radialGradient cx="68.4545103%" cy="119.809728%" fx="68.4545103%" fy="119.809728%" r="471.425012%" gradientTransform="translate(0.684545,1.198097),scale(0.193548,1.000000),translate(-0.684545,-1.198097)" id="radialGradient-1">
            <stop stop-color="#4957AE" offset="0%"></stop>
            <stop stop-color="#191935" offset="60%"></stop>
            <stop stop-color="#191935" offset="100%"></stop>
        </radialGradient>
    </defs>
    <g id="Centrica-Logo/2" stroke="none" stroke-width="1" fill="none" fill-rule="evenodd">
        <path d="M313.663724,86.7941307 C306.849211,82.3111265 304.001354,74.1531014 307.408611,68.8881779 L307.408611,68.8881779 C310.815868,63.6493183 318.978028,63.2583586 325.99596,67.7413628 L325.99596,67.7413628 C332.810473,72.3807509 335.480339,80.3563282 332.2765,85.6212517 L332.2765,85.6212517 C330.420308,88.5404172 327.140188,90 323.453231,90 L323.453231,90 C320.300247,90 316.816708,88.9574409 313.663724,86.7941307 L313.663724,86.7941307 Z M225.542145,77.8059615 C218.206801,77.6001096 215.692567,77.6001096 215.692567,77.6001096 L215.692567,77.6001096 L211.804575,60.3600097 L201.384758,60.3600097 C201.384758,60.3600097 204.469232,58.4301477 206.205868,54.9563963 L206.205868,54.9563963 C207.553705,51.7142282 208.149863,47.2884115 207.164906,42.0906501 L207.164906,42.0906501 C205.454189,32.3384145 203.328754,22.9206882 203.328754,22.9206882 L203.328754,22.9206882 C199.622202,6.22094968 206.387307,0.868799265 222.250312,0.868799265 L222.250312,0.868799265 C226.319743,0.868799265 232.09989,1.22904016 236.169321,2.00098493 L236.169321,2.00098493 L239.461154,17.7486583 C235.806442,17.1568339 232.696049,16.9767135 230.570614,16.9767135 L230.570614,16.9767135 C227.278781,16.9767135 225.334785,19.0866959 225.542145,21.5569191 L225.542145,21.5569191 C225.542145,23.6669015 226.112384,25.9827358 226.501183,27.9125978 L226.501183,27.9125978 L230.389174,45.5644015 L245.448661,45.5644015 L248.921933,60.3600097 L233.084848,60.3600097 L237.154279,78.1919339 C237.154279,78.1919339 233.681007,77.9860819 225.542145,77.8059615 L225.542145,77.8059615 Z M-1.42108547e-14,28.1446354 C-1.42108547e-14,15.4291527 5.37440564,1.42108547e-14 31.4492732,1.42108547e-14 L31.4492732,1.42108547e-14 C46.8010444,1.42108547e-14 61.1756508,9.45907855 64.6471569,26.0512327 L64.6471569,26.0512327 L42.5838074,26.0512327 C40.8351969,21.0115597 37.0293977,15.4291527 31.4492732,15.4291527 L31.4492732,15.4291527 C24.7376949,15.4291527 23.0147993,20.4429812 23.5805262,28.7390583 L23.5805262,28.7390583 C23.9662491,32.9775526 26.4605905,47.9931936 36.6436748,47.9931936 L36.6436748,47.9931936 C43.9209801,47.9931936 44.5124219,40.4982953 44.5124219,37.6037139 L44.5124219,37.6037139 L66.5500565,37.6037139 C66.7300605,54.3767794 54.6697914,63.4223464 37.3894058,63.4223464 L37.3894058,63.4223464 C14.4003213,63.4223464 -1.42108547e-14,45.305368 -1.42108547e-14,28.1446354 L-1.42108547e-14,28.1446354 Z M68.2806691,26.7497024 C68.2806691,11.169355 77.5536219,0 99.2077797,0 L99.2077797,0 C121.431784,0 128.943394,15.5803474 130.49752,19.4238437 L130.49752,19.4238437 L108.843362,19.4238437 C107.315138,16.3542057 104.983949,14.238993 100.166158,14.238993 L100.166158,14.238993 C95.9182127,14.238993 93.5870234,16.3542057 92.4214288,18.4694184 L92.4214288,18.4694184 C91.2817363,20.7651981 90.6859879,23.4737022 90.8932048,26.7497024 L90.8932048,26.7497024 L132.828709,26.7497024 C133.57987,29.6387735 133.968401,32.9147737 133.968401,36.7582699 L133.968401,36.7582699 C133.968401,54.4538301 120.836035,62.5535471 105.165263,62.5535471 L105.165263,62.5535471 C88.173484,62.5535471 68.2806691,51.9516882 68.2806691,26.7497024 L68.2806691,26.7497024 Z M104.383012,48.7830787 C110.761636,48.7830787 113.847231,45.1080579 112.706339,38.0968478 L112.706339,38.0968478 L92.7666548,38.0968478 C94.3483462,44.1176267 98.3673983,48.7830787 104.383012,48.7830787 L104.383012,48.7830787 Z M392.39777,25.2316829 C392.39777,14.6053187 396.58389,0.868799265 413.662236,0.868799265 L413.662236,0.868799265 C421.315389,0.868799265 428.968543,4.93791919 432.230122,9.39580853 L432.230122,9.39580853 L432.230122,9.18846484 C432.230122,6.88176628 432.409894,4.16038035 433.385799,2.24245121 L433.385799,2.24245121 L455.600489,2.24245121 C454.444812,5.32668861 454.444812,10.5621168 455.780261,16.7305916 L455.780261,16.7305916 C456.935939,21.9401018 465,61.0243874 465,61.0243874 L465,61.0243874 L442.78531,61.0243874 L441.038953,53.4563427 C438.368053,58.8991146 432.641029,62.5535471 423.806517,62.5535471 L423.806517,62.5535471 C403.28682,62.5535471 392.39777,42.4412092 392.39777,25.2316829 L392.39777,25.2316829 Z M415.937314,26.6947601 C415.937314,35.9538464 421.175046,46.9151603 429.109433,46.9151603 L429.109433,46.9151603 C435.669563,46.9151603 438.003206,42.4790521 438.003206,36.5212556 L438.003206,36.5212556 C438.003206,24.1930014 432.013522,16.507186 424.649582,16.507186 L424.649582,16.507186 C419.437779,16.507186 415.937314,19.3958146 415.937314,26.6947601 L415.937314,26.6947601 Z M324.1171,27.9271508 C324.297103,15.3828576 330.057176,0.868799265 355.746075,0.868799265 L355.746075,0.868799265 C370.917697,0.868799265 385.317881,9.39580853 388.943641,26.0351397 L388.943641,26.0351397 L366.880503,26.0351397 C365.157624,20.9811372 361.326146,16.3418221 355.566073,16.3418221 L355.566073,16.3418221 C349.265992,16.3418221 347.337396,20.4109421 347.903118,28.7306076 L347.903118,28.7306076 C348.08312,33.162579 350.603152,47.2878679 360.940427,47.2878679 L360.940427,47.2878679 C368.243377,47.2878679 368.809099,40.3159363 368.629097,37.6204684 L368.629097,37.6204684 L390.66652,37.6204684 C390.872237,54.4412252 378.966371,62.5535471 361.506149,62.5535471 L361.506149,62.5535471 C338.697286,62.5535471 324.1171,45.3440208 324.1171,27.9271508 L324.1171,27.9271508 Z M163.610633,51.8695936 L165.9344,60.1648158 L144.349186,60.1648158 L132.239777,1.73759853 L154.573761,1.73759853 L161.131948,32.6772317 C162.474569,38.8342444 164.798336,43.8062254 171.924555,43.8062254 L171.924555,43.8062254 C175.565124,43.8062254 178.276185,41.8741085 178.276185,38.2417286 L178.276185,38.2417286 C178.276185,35.9231882 177.114302,31.9043849 176.52045,28.4265743 L176.52045,28.4265743 L170.762672,1.73759853 L192.709361,1.73759853 L199.83558,34.7896796 C200.790907,39.0145753 201.384758,43.2394711 201.384758,45.9444349 L201.384758,45.9444349 C201.384758,58.0523679 191.728215,61.6847478 184.059784,61.6847478 L184.059784,61.6847478 C174.40324,61.6847478 168.258167,57.0734287 163.610633,51.8695936 L163.610633,51.8695936 Z M273.553618,50.2015211 L273.553618,50.4086319 L275.86061,60.4535047 L254.216352,60.4535047 L242.007435,1.73759853 L264.455253,1.73759853 L269.691349,26.2543371 C271.998342,37.0758754 276.638249,41.3216464 283.792518,41.3216464 L283.792518,41.3216464 C287.265968,41.3216464 289.391512,41.1145356 293.072332,39.7683155 L293.072332,39.7683155 L297.32342,59.8580612 C295.586695,60.6347266 293.6426,60.8159486 290.97271,60.8159486 L290.97271,60.8159486 C283.792518,60.8159486 277.027068,55.7935122 273.553618,50.2015211 L273.553618,50.2015211 Z M302.537802,59.9471493 L290.408922,1.73759853 L312.8007,1.73759853 L324.981413,59.9471493 L302.537802,59.9471493 Z" id="path7890" fill="url(#radialGradient-1)" fill-rule="nonzero" transform="translate(232.500000, 45.000000) scale(1, -1) translate(-232.500000, -45.000000) "></path>
    </g>
</svg>
